<?xml version="1.0" encoding="UTF-8"?>
<!DOCTYPE svg PUBLIC "-//W3C//DTD SVG 1.1//EN" "http://www.w3.org/Graphics/SVG/1.1/DTD/svg11.dtd">
<!-- Creator: CorelDRAW -->
<svg xmlns="http://www.w3.org/2000/svg" xml:space="preserve" width="69.0139mm" height="30.2958mm" version="1.1" style="shape-rendering:geometricPrecision; text-rendering:geometricPrecision; image-rendering:optimizeQuality; fill-rule:evenodd; clip-rule:evenodd"
viewBox="0 0 2921.27 1282.38"
 xmlns:xlink="http://www.w3.org/1999/xlink"
 xmlns:xodm="http://www.corel.com/coreldraw/odm/2003">
 <defs>
  <style type="text/css">
   <![CDATA[
    .fil5 {fill:white;fill-rule:nonzero}
    .fil4 {fill:#434342;fill-rule:nonzero}
    .fil3 {fill:#2B2B2A;fill-rule:nonzero}
    .fil2 {fill:#FF4745;fill-rule:nonzero}
    .fil1 {fill:#FF4745;fill-opacity:0.101961}
    .fil0 {fill:#2B2B2A;fill-opacity:0.200000}
   ]]>
  </style>
   <clipPath id="id0">
    <path d="M222.86 13.07l2687.83 0 0 1033.78 -2687.83 0 0 -1033.78z"/>
   </clipPath>
   <clipPath id="id1">
    <path d="M222.86 13.07l2687.83 0 0 1033.78 -2687.83 0 0 -1033.78z"/>
   </clipPath>
 </defs>
 <g id="Capa_x0020_1">
  <metadata id="CorelCorpID_0Corel-Layer"/>
  <g style="clip-path:url(#id0)">
   <polygon class="fil0" points="222.86,13.07 2910.69,13.07 2910.69,1046.85 222.86,1046.85 "/>
  </g>
  <g style="clip-path:url(#id1)">
   <g id="_32047893184">
    <g>
     <polygon id="_1" class="fil1" points="136.29,-579 302.35,-547.03 -21.25,1134.25 -187.31,1102.29 "/>
     <polygon class="fil1" points="407.47,-519.48 573.53,-487.52 249.93,1193.77 83.87,1161.81 "/>
     <polygon class="fil1" points="678.66,-459.96 844.71,-428 521.11,1253.29 355.06,1221.32 "/>
     <polygon class="fil1" points="949.83,-400.45 1115.89,-368.49 792.29,1312.8 626.24,1280.84 "/>
     <polygon class="fil1" points="1221.02,-340.93 1387.07,-308.97 1063.47,1372.32 897.42,1340.36 "/>
     <polygon class="fil1" points="1492.2,-281.41 1658.25,-249.46 1334.65,1431.84 1168.6,1399.87 "/>
     <polygon class="fil1" points="1763.38,-221.9 1929.43,-189.94 1605.83,1491.35 1439.78,1459.39 "/>
     <polygon class="fil1" points="2034.56,-162.38 2200.61,-130.42 1877.02,1550.87 1710.96,1518.91 "/>
     <polygon class="fil1" points="2305.74,-102.87 2471.79,-70.9 2148.19,1610.38 1982.14,1578.42 "/>
     <polygon class="fil1" points="2576.92,-43.35 2742.98,-11.39 2419.38,1669.9 2253.32,1637.94 "/>
     <polygon class="fil1" points="2848.1,16.17 3014.15,48.13 2690.56,1729.42 2524.5,1697.46 "/>
     <polygon class="fil1" points="3119.28,75.68 3285.34,107.65 2961.74,1788.93 2795.68,1756.97 "/>
    </g>
   </g>
  </g>
  <g>
   <path class="fil2" d="M275.77 2.48l0 21.16 -52.91 0 0 -21.16 52.91 0zm206.56 0l0 21.16 -103.28 0 0 -21.16 103.28 0zm206.56 0l0 21.16 -103.28 0 0 -21.16 103.28 0zm206.56 0l0 21.16 -103.28 0 0 -21.16 103.28 0zm206.56 0l0 21.16 -103.28 0 0 -21.16 103.28 0zm206.56 0l0 21.16 -103.28 0 0 -21.16 103.28 0zm206.56 0l0 21.16 -103.28 0 0 -21.16 103.28 0zm206.56 0l0 21.16 -103.28 0 0 -21.16 103.28 0zm206.56 0l0 21.16 -103.28 0 0 -21.16 103.28 0zm206.56 0l0 21.16 -103.28 0 0 -21.16 103.28 0zm206.56 0l0 21.16 -103.28 0 0 -21.16 103.28 0zm206.56 0l0 21.16 -103.28 0 0 -21.16 103.28 0zm206.56 0l0 21.16 -103.28 0 0 -21.16 103.28 0zm156.15 21.16l-52.87 0 0 -21.16 52.87 0 10.58 10.58 -10.58 10.58zm0 -21.16l10.58 0 0 10.58 -10.58 -10.58zm10.58 63.49l-21.16 0 0 -52.91 21.16 0 0 52.91zm0 206.22l-21.16 0 0 -103.11 21.16 0 0 103.11zm0 206.22l-21.16 0 0 -103.11 21.16 0 0 103.11zm0 206.22l-21.16 0 0 -103.11 21.16 0 0 103.11zm0 206.22l-21.16 0 0 -103.11 21.16 0 0 103.11zm-21.16 156l0 -52.89 21.16 0 0 52.89 -10.58 10.58 -10.58 -10.58zm21.16 0l0 10.58 -10.58 0 10.58 -10.58zm-63.49 10.58l0 -21.16 52.91 0 0 21.16 -52.91 0zm-206.56 0l0 -21.16 103.28 0 0 21.16 -103.28 0zm-206.56 0l0 -21.16 103.28 0 0 21.16 -103.28 0zm-206.56 0l0 -21.16 103.28 0 0 21.16 -103.28 0zm-206.56 0l0 -21.16 103.28 0 0 21.16 -103.28 0zm-206.56 0l0 -21.16 103.28 0 0 21.16 -103.28 0zm-206.56 0l0 -21.16 103.28 0 0 21.16 -103.28 0zm-206.56 0l0 -21.16 103.28 0 0 21.16 -103.28 0zm-206.56 0l0 -21.16 103.28 0 0 21.16 -103.28 0zm-206.56 0l0 -21.16 103.28 0 0 21.16 -103.28 0zm-206.56 0l0 -21.16 103.28 0 0 21.16 -103.28 0zm-206.56 0l0 -21.16 103.28 0 0 21.16 -103.28 0zm-206.56 0l0 -21.16 103.28 0 0 21.16 -103.28 0zm-156.15 -21.16l52.87 0 0 21.16 -52.87 0 -10.58 -10.58 10.58 -10.58zm0 21.16l-10.58 0 0 -10.58 10.58 10.58zm-10.58 -63.49l21.16 0 0 52.91 -21.16 0 0 -52.91zm0 -206.22l21.16 0 0 103.11 -21.16 0 0 -103.11zm0 -206.22l21.16 0 0 103.11 -21.16 0 0 -103.11zm0 -206.22l21.16 0 0 103.11 -21.16 0 0 -103.11zm0 -206.22l21.16 0 0 103.11 -21.16 0 0 -103.11zm21.16 -156l0 52.89 -21.16 0 0 -52.89 10.58 -10.58 10.58 10.58zm-21.16 0l0 -10.58 10.58 0 -10.58 10.58z"/>
  </g>
  <g id="_32047893952">
   <g>
    <path class="fil2" d="M37.05 979.71l0 -543.04 10.58 0 0 543.04 -10.58 0zm-37.05 -79.01l84.68 0 -42.34 158.02 -42.34 -158.02z"/>
   </g>
   <g>
    <path class="fil2" d="M-0 158.02l42.34 -158.02 42.34 158.02 -84.68 0zm37.05 555.4l0 -634.41 10.58 0 0 634.41 -10.58 0z"/>
   </g>
  </g>
  <g id="_32047903808">
   <g>
    <path class="fil2" d="M295.77 1234.75l1507.83 0 0 10.58 -1507.83 0 0 -10.58zm79.01 -37.05l0 84.68 -158.02 -42.34 158.02 -42.34z"/>
   </g>
   <g>
    <path class="fil2" d="M2759.53 1197.7l158.02 42.34 -158.02 42.34 0 -84.68zm-1661.91 37.05l1740.92 0 0 10.58 -1740.92 0 0 -10.58z"/>
   </g>
  </g>
  <path class="fil3" d="M525.59 185.67l0 -29.87 210.69 0 0 29.87 -89.93 0 0 251.53 -31.23 0 0 -251.53 -89.54 0zm326.35 200.88l0 -20.97c0,-9.48 -4.77,-16.39 -14.45,-20.83 -9.61,-4.39 -24.97,-6.58 -46,-6.58 -19.29,0 -32.19,2.39 -38.64,7.29 -6.51,4.84 -9.74,14.13 -9.74,27.87 0,15.61 3.42,26.06 10.26,31.29 6.9,5.22 20.64,7.81 41.35,7.81 18.51,0 32.64,-2.19 42.51,-6.71 9.8,-4.45 14.7,-10.84 14.7,-19.16zm1.55 29.68c-4.58,8.32 -11.74,14.32 -21.68,18.06 -9.87,3.68 -23.54,5.55 -41.09,5.55 -31.09,0 -51.99,-4.45 -62.57,-13.35 -10.58,-8.84 -15.87,-25.42 -15.87,-49.61 0,-13.93 1.23,-24.9 3.68,-32.83 2.45,-7.94 6.51,-14.32 12.19,-19.09 4.84,-4.06 11.81,-6.9 21.1,-8.64 9.29,-1.68 22.58,-2.52 40,-2.52 18,0 31.74,1.49 41.29,4.45 9.48,2.97 16.64,7.87 21.41,14.84l0 -34.38c0,-16.26 -3.16,-26.84 -9.42,-31.61 -6.32,-4.77 -22.13,-7.16 -47.48,-7.16 -18.38,0 -30.57,1.93 -36.64,5.74 -6.07,3.87 -9.22,11.09 -9.42,21.68l-29.35 0 0 -4.58c0,-16.97 5.55,-29.1 16.58,-36.39 11.03,-7.23 30,-10.84 56.96,-10.84 21.03,0 37.03,0.9 48,2.65 10.97,1.74 19.09,4.58 24.39,8.51 5.81,4.52 9.87,10.13 12.32,16.84 2.39,6.65 3.55,18.13 3.55,34.38l0 139.28 -26.84 0 -1.1 -20.97zm86.77 20.97l0 -199.01 28.51 0 0 27.22c4.19,-10.32 10.65,-17.87 19.48,-22.71 8.83,-4.77 20.51,-7.16 35.16,-7.16 21.67,0 36.9,5.22 45.6,15.67 8.77,10.45 13.16,28.97 13.16,55.61l0 1.49 -29.67 0 0 -5.87c0,-15.87 -2.51,-26.51 -7.55,-32 -5.03,-5.49 -14.58,-8.26 -28.58,-8.26 -16.32,0 -28.19,4.64 -35.48,13.87 -7.35,9.29 -10.97,24.45 -10.97,45.48l0 115.67 -29.67 0zm318.49 -83.15l0 -32.51c0,-20.77 -4.84,-35.87 -14.45,-45.29 -9.68,-9.35 -25.16,-14.06 -46.45,-14.06 -19.29,0 -32.13,3.48 -38.64,10.51 -6.45,6.97 -9.74,23.03 -9.74,48.06l0 34.06c0,24.9 3.29,40.9 9.74,47.87 6.51,7.04 19.35,10.52 38.64,10.52 21.29,0 36.77,-4.71 46.45,-14.07 9.61,-9.42 14.45,-24.45 14.45,-45.09zm29.29 -115.86l0 196.76c0,29.22 -5.74,49.61 -17.22,61.15 -11.48,11.48 -31.61,17.29 -60.45,17.29l-13.61 0c-26,0 -44.97,-4.77 -56.9,-14.19 -12,-9.48 -18.77,-25.1 -20.45,-46.9l30.06 0c1.29,12.77 5.22,21.61 11.8,26.58 6.65,4.97 18.58,7.48 35.87,7.48l13.22 0c17.35,0 29.8,-2.84 37.22,-8.52 7.42,-5.68 11.16,-14.96 11.16,-27.8l0 -41.16c-5.55,10.9 -13.16,18.84 -22.77,23.68 -9.68,4.84 -22.71,7.29 -39.22,7.29 -28.39,0 -48.32,-5.87 -59.93,-17.55 -11.61,-11.74 -17.41,-32.06 -17.41,-60.89l0 -47.22c0,-28.97 5.8,-49.35 17.41,-61.09 11.61,-11.67 31.55,-17.55 59.93,-17.55 16.97,0 30.58,2.71 40.7,8.13 10.13,5.42 17.61,13.93 22.39,25.55l0 -31.03 28.19 0zm83.67 80.12l112.63 0 0 -7.74c0,-18.64 -3.29,-31.29 -10,-37.99 -6.65,-6.65 -19.93,-10 -39.67,-10l-13.8 0c-19.67,0 -32.77,3.36 -39.29,10 -6.58,6.71 -9.87,19.35 -9.87,37.99l0 7.74zm49.54 121.54c-29.74,0 -50.51,-5.81 -62.38,-17.42 -11.87,-11.55 -17.74,-31.93 -17.74,-61.03l0 -47.22c0,-29.22 5.87,-49.67 17.68,-61.22 11.74,-11.61 32.45,-17.42 62.06,-17.42l13.8 0c29.74,0 50.52,5.8 62.38,17.42 11.81,11.55 17.74,32 17.74,61.22l0 30.06 -143.08 0.19c-0.13,2 -0.19,4.19 -0.26,6.71 -0.06,2.46 -0.13,5.87 -0.13,10.26 0,20.58 3.29,34.32 9.87,41.28 6.51,7.04 19.74,10.52 39.67,10.52l13.8 0c17.74,0 30.13,-2.58 37.03,-7.68 6.9,-5.1 10.97,-14 12.13,-26.71l30.58 0c-1.48,21.55 -8.45,37.1 -20.77,46.64 -12.39,9.61 -31.87,14.39 -58.57,14.39l-13.81 0zm126.83 -176.5l0 -25.16 24.39 0 0 -44.77 29.48 0 0 44.77 97.54 0 0 25.16 -97.54 0 0 109.61c0,15.61 2.58,26.25 7.67,31.87 5.1,5.55 14.84,8.39 29.16,8.39 14.26,0 23.87,-2.71 28.83,-8.13 4.97,-5.42 7.48,-16.13 7.48,-32.12l0 -5.87 29.87 0 0 1.68c0,28 -4.65,46.83 -13.93,56.51 -9.23,9.74 -28.52,14.58 -57.74,14.58 -22.77,0 -38.64,-5.16 -47.55,-15.42 -8.83,-10.26 -13.29,-28.83 -13.29,-55.67l0 -105.41 -24.39 0zm337.13 82.19l31.42 0 0 5.29c0,16.77 1.22,29.1 3.74,37.03 2.51,7.94 6.71,13.55 12.51,16.84 4.52,2.51 11.48,4.32 20.97,5.42 9.42,1.03 28.9,1.55 58.38,1.55 16,0 28.39,-1.03 37.22,-3.1 8.84,-2.06 15.35,-5.42 19.67,-10.13 2.39,-2.52 4.13,-6.78 5.29,-12.84 1.1,-6.07 1.68,-14.26 1.68,-24.58 0,-20.9 -2.13,-33.99 -6.32,-39.42 -4.19,-5.35 -12.58,-8.51 -25.03,-9.48l-86.77 -6.84c-25.93,-2 -43.93,-8.52 -53.87,-19.48 -9.93,-10.97 -14.9,-29.42 -14.9,-55.35 0,-16.39 1.61,-29.55 4.9,-39.48 3.29,-10 8.58,-18.26 15.87,-24.77 5.68,-5.03 13.61,-8.58 23.81,-10.71 10.19,-2.06 28.25,-3.09 54.06,-3.09l10 0c28.9,0 49.22,1.35 60.97,4.13 11.81,2.78 21.67,7.61 29.61,14.39 5.42,4.52 9.42,10.97 12,19.35 2.58,8.39 3.87,18.84 3.87,31.29 0,3.67 -0.06,6.45 -0.13,8.45 -0.07,1.93 -0.13,3.68 -0.26,5.16l-31.35 0 0 -6.97c0,-10.32 -0.65,-18.26 -1.81,-23.74 -1.23,-5.49 -3.16,-9.55 -5.81,-12.19 -3.87,-3.87 -10.84,-6.64 -20.83,-8.19 -10.07,-1.61 -29.03,-2.39 -57.03,-2.39 -28.97,0 -47.15,3.29 -54.57,9.81 -7.48,6.58 -11.16,19.67 -11.16,39.35 0,16.13 2.39,27.23 7.29,33.35 4.84,6.13 14.19,9.74 28.06,10.84l88.45 7.42c23.16,2 39.41,8.39 48.77,19.16 9.29,10.77 13.93,28.77 13.93,53.93 0,18.45 -1.16,32.25 -3.55,41.48 -2.39,9.29 -6.39,17.03 -11.93,23.16 -6.78,7.67 -15.94,13.09 -27.48,16.19 -11.55,3.09 -32.51,4.64 -63.03,4.64l-14 0c-25.93,0 -44.32,-1.35 -55.09,-4 -10.77,-2.65 -19.74,-7.23 -26.9,-13.8 -7.1,-6.07 -12.26,-14.26 -15.61,-24.58 -3.36,-10.32 -5.03,-23.42 -5.03,-39.29l0 -13.81zm280.3 -156.5l0 -33.22 29.29 0 0 33.22 -29.29 0zm0 248.17l0 -199.01 29.29 0 0 199.01 -29.29 0zm82.38 0l0 -32.13 123.02 -139.66 -117.21 0 0 -27.22 153.28 0 0 27.61 -127.35 144.76 127.35 0 0 26.64 -159.08 0zm230.37 -118.89l112.63 0 0 -7.74c0,-18.64 -3.29,-31.29 -10,-37.99 -6.65,-6.65 -19.93,-10 -39.67,-10l-13.8 0c-19.67,0 -32.77,3.36 -39.29,10 -6.58,6.71 -9.87,19.35 -9.87,37.99l0 7.74zm49.54 121.54c-29.74,0 -50.51,-5.81 -62.38,-17.42 -11.87,-11.55 -17.74,-31.93 -17.74,-61.03l0 -47.22c0,-29.22 5.87,-49.67 17.68,-61.22 11.74,-11.61 32.45,-17.42 62.06,-17.42l13.8 0c29.74,0 50.52,5.8 62.38,17.42 11.81,11.55 17.74,32 17.74,61.22l0 30.06 -143.08 0.19c-0.13,2 -0.19,4.19 -0.26,6.71 -0.06,2.46 -0.13,5.87 -0.13,10.26 0,20.58 3.29,34.32 9.87,41.28 6.51,7.04 19.74,10.52 39.67,10.52l13.8 0c17.74,0 30.13,-2.58 37.03,-7.68 6.9,-5.1 10.97,-14 12.13,-26.71l30.58 0c-1.48,21.55 -8.45,37.1 -20.77,46.64 -12.39,9.61 -31.87,14.39 -58.57,14.39l-13.81 0z"/>
  <path class="fil4" d="M571.06 773.72l121.86 0 -56.13 -151.73 -10 0 -55.73 151.73zm-68.83 99.8l103.99 -281.39 51.22 0 104.51 281.39 -32.13 0 -26.84 -71.99 -142.31 0 -26.32 71.99 -32.13 0zm294.1 0l0 -199.01 28.13 0 0 27.22c4.77,-10.19 12.45,-17.74 23.09,-22.58 10.58,-4.84 24.51,-7.29 41.93,-7.29 26.06,0 44.32,5.29 54.83,15.81 10.45,10.51 15.68,28.97 15.68,55.48l0 130.38 -29.48 0 0 -124.18c0,-20.77 -3.09,-34.45 -9.16,-41.02 -6.13,-6.52 -18,-9.81 -35.67,-9.81 -20.77,0 -36,4.77 -45.61,14.26 -9.68,9.55 -14.45,24.58 -14.45,45.09l0 115.67 -29.29 0zm353 -50.64l0 -20.97c0,-9.48 -4.77,-16.39 -14.45,-20.83 -9.61,-4.39 -24.97,-6.58 -46,-6.58 -19.29,0 -32.19,2.39 -38.64,7.29 -6.51,4.84 -9.74,14.13 -9.74,27.87 0,15.61 3.42,26.06 10.26,31.29 6.9,5.22 20.64,7.81 41.35,7.81 18.51,0 32.64,-2.19 42.51,-6.71 9.8,-4.45 14.7,-10.84 14.7,-19.16zm1.55 29.68c-4.58,8.32 -11.74,14.32 -21.68,18.06 -9.87,3.68 -23.54,5.55 -41.09,5.55 -31.09,0 -51.99,-4.45 -62.57,-13.35 -10.58,-8.84 -15.87,-25.42 -15.87,-49.61 0,-13.93 1.23,-24.9 3.68,-32.83 2.45,-7.94 6.51,-14.32 12.19,-19.09 4.84,-4.06 11.81,-6.9 21.1,-8.64 9.29,-1.68 22.58,-2.52 40,-2.52 18,0 31.74,1.49 41.29,4.45 9.48,2.97 16.64,7.87 21.41,14.84l0 -34.38c0,-16.26 -3.16,-26.84 -9.42,-31.61 -6.32,-4.77 -22.13,-7.16 -47.48,-7.16 -18.38,0 -30.57,1.93 -36.64,5.74 -6.07,3.87 -9.22,11.09 -9.42,21.68l-29.35 0 0 -4.58c0,-16.97 5.55,-29.1 16.58,-36.39 11.03,-7.23 30,-10.84 56.96,-10.84 21.03,0 37.03,0.9 48,2.65 10.97,1.74 19.09,4.58 24.39,8.51 5.81,4.52 9.87,10.13 12.32,16.84 2.39,6.65 3.55,18.13 3.55,34.38l0 139.28 -26.84 0 -1.1 -20.97zm87.15 20.97l0 -281.39 29.29 0 0 281.39 -29.29 0zm68.77 -199.01l29.48 0 59.15 171.21 58.77 -171.21 29.1 0 -75.03 216.43c-8.19,23.42 -16.51,39.29 -25.03,47.61 -8.52,8.32 -19.93,12.45 -34.32,12.45 -2.13,0 -4.52,-0.07 -7.09,-0.26 -2.58,-0.19 -5.35,-0.58 -8.39,-1.03l0.19 -25.93c0.84,0.13 1.93,0.26 3.29,0.32 1.29,0.07 3.16,0.07 5.55,0.07 9.1,0 16.13,-2.07 21.1,-6.13 4.97,-4.13 9.68,-12.06 14.06,-23.93l7.42 -20.58 -8.9 0 -69.35 -199.01zm202.43 199.01l0 -32.13 123.02 -139.66 -117.21 0 0 -27.22 153.28 0 0 27.61 -127.35 144.76 127.35 0 0 26.64 -159.08 0zm230.37 -118.89l112.63 0 0 -7.74c0,-18.64 -3.29,-31.29 -10,-37.99 -6.65,-6.65 -19.93,-10 -39.67,-10l-13.8 0c-19.67,0 -32.77,3.36 -39.29,10 -6.58,6.71 -9.87,19.35 -9.87,37.99l0 7.74zm49.54 121.54c-29.74,0 -50.51,-5.81 -62.38,-17.42 -11.87,-11.55 -17.74,-31.93 -17.74,-61.03l0 -47.22c0,-29.22 5.87,-49.67 17.68,-61.22 11.74,-11.61 32.45,-17.42 62.06,-17.42l13.8 0c29.74,0 50.52,5.8 62.38,17.42 11.81,11.55 17.74,32 17.74,61.22l0 30.06 -143.08 0.19c-0.13,2 -0.19,4.19 -0.26,6.71 -0.06,2.46 -0.13,5.87 -0.13,10.26 0,20.58 3.29,34.32 9.87,41.28 6.51,7.04 19.74,10.52 39.67,10.52l13.8 0c17.74,0 30.13,-2.58 37.03,-7.68 6.9,-5.1 10.97,-14 12.13,-26.71l30.58 0c-1.48,21.55 -8.45,37.1 -20.77,46.64 -12.39,9.61 -31.87,14.39 -58.57,14.39l-13.81 0zm146.31 -2.65l0 -199.01 28.51 0 0 27.22c4.19,-10.32 10.65,-17.87 19.48,-22.71 8.83,-4.77 20.51,-7.16 35.16,-7.16 21.67,0 36.9,5.22 45.6,15.67 8.77,10.45 13.16,28.97 13.16,55.61l0 1.49 -29.67 0 0 -5.87c0,-15.87 -2.51,-26.51 -7.55,-32 -5.03,-5.49 -14.58,-8.26 -28.58,-8.26 -16.32,0 -28.19,4.64 -35.48,13.87 -7.35,9.29 -10.97,24.45 -10.97,45.48l0 115.67 -29.67 0z"/>
  <path class="fil5" d="M514.26 177.45l0 -29.87 210.69 0 0 29.87 -89.93 0 0 251.53 -31.23 0 0 -251.53 -89.54 0zm326.35 200.88l0 -20.97c0,-9.48 -4.77,-16.39 -14.45,-20.83 -9.61,-4.39 -24.97,-6.58 -46,-6.58 -19.29,0 -32.19,2.39 -38.64,7.29 -6.51,4.84 -9.74,14.13 -9.74,27.87 0,15.61 3.42,26.06 10.26,31.29 6.9,5.22 20.64,7.81 41.35,7.81 18.51,0 32.64,-2.19 42.51,-6.71 9.8,-4.45 14.7,-10.84 14.7,-19.16zm1.55 29.68c-4.58,8.32 -11.74,14.32 -21.68,18.06 -9.87,3.68 -23.54,5.55 -41.09,5.55 -31.09,0 -51.99,-4.45 -62.57,-13.35 -10.58,-8.84 -15.87,-25.42 -15.87,-49.61 0,-13.93 1.23,-24.9 3.68,-32.83 2.45,-7.94 6.51,-14.32 12.19,-19.09 4.84,-4.06 11.81,-6.9 21.1,-8.64 9.29,-1.68 22.58,-2.52 40,-2.52 18,0 31.74,1.49 41.29,4.45 9.48,2.97 16.64,7.87 21.41,14.84l0 -34.38c0,-16.26 -3.16,-26.84 -9.42,-31.61 -6.32,-4.77 -22.13,-7.16 -47.48,-7.16 -18.38,0 -30.57,1.93 -36.64,5.74 -6.07,3.87 -9.22,11.09 -9.42,21.68l-29.35 0 0 -4.58c0,-16.97 5.55,-29.1 16.58,-36.39 11.03,-7.23 30,-10.84 56.96,-10.84 21.03,0 37.03,0.9 48,2.65 10.97,1.74 19.09,4.58 24.39,8.51 5.81,4.52 9.87,10.13 12.32,16.84 2.39,6.65 3.55,18.13 3.55,34.38l0 139.28 -26.84 0 -1.1 -20.97zm86.77 20.97l0 -199.01 28.51 0 0 27.22c4.19,-10.32 10.65,-17.87 19.48,-22.71 8.83,-4.77 20.51,-7.16 35.16,-7.16 21.67,0 36.9,5.22 45.6,15.67 8.77,10.45 13.16,28.97 13.16,55.61l0 1.49 -29.67 0 0 -5.87c0,-15.87 -2.51,-26.51 -7.55,-32 -5.03,-5.49 -14.58,-8.26 -28.58,-8.26 -16.32,0 -28.19,4.64 -35.48,13.87 -7.35,9.29 -10.97,24.45 -10.97,45.48l0 115.67 -29.67 0zm318.49 -83.15l0 -32.51c0,-20.77 -4.84,-35.87 -14.45,-45.29 -9.68,-9.35 -25.16,-14.06 -46.45,-14.06 -19.29,0 -32.13,3.48 -38.64,10.51 -6.45,6.97 -9.74,23.03 -9.74,48.06l0 34.06c0,24.9 3.29,40.9 9.74,47.87 6.51,7.04 19.35,10.52 38.64,10.52 21.29,0 36.77,-4.71 46.45,-14.07 9.61,-9.42 14.45,-24.45 14.45,-45.09zm29.29 -115.86l0 196.76c0,29.22 -5.74,49.61 -17.22,61.15 -11.48,11.48 -31.61,17.29 -60.45,17.29l-13.61 0c-26,0 -44.97,-4.77 -56.9,-14.19 -12,-9.48 -18.77,-25.1 -20.45,-46.9l30.06 0c1.29,12.77 5.22,21.61 11.8,26.58 6.65,4.97 18.58,7.48 35.87,7.48l13.22 0c17.35,0 29.8,-2.84 37.22,-8.52 7.42,-5.68 11.16,-14.96 11.16,-27.8l0 -41.16c-5.55,10.9 -13.16,18.84 -22.77,23.68 -9.68,4.84 -22.71,7.29 -39.22,7.29 -28.39,0 -48.32,-5.87 -59.93,-17.55 -11.61,-11.74 -17.41,-32.06 -17.41,-60.89l0 -47.22c0,-28.97 5.8,-49.35 17.41,-61.09 11.61,-11.67 31.55,-17.55 59.93,-17.55 16.97,0 30.58,2.71 40.7,8.13 10.13,5.42 17.61,13.93 22.39,25.55l0 -31.03 28.19 0zm83.67 80.12l112.63 0 0 -7.74c0,-18.64 -3.29,-31.29 -10,-37.99 -6.65,-6.65 -19.93,-10 -39.67,-10l-13.8 0c-19.67,0 -32.77,3.36 -39.29,10 -6.58,6.71 -9.87,19.35 -9.87,37.99l0 7.74zm49.54 121.54c-29.74,0 -50.51,-5.81 -62.38,-17.42 -11.87,-11.55 -17.74,-31.93 -17.74,-61.03l0 -47.22c0,-29.22 5.87,-49.67 17.68,-61.22 11.74,-11.61 32.45,-17.42 62.06,-17.42l13.8 0c29.74,0 50.52,5.8 62.38,17.42 11.81,11.55 17.74,32 17.74,61.22l0 30.06 -143.08 0.19c-0.13,2 -0.19,4.19 -0.26,6.71 -0.06,2.46 -0.13,5.87 -0.13,10.26 0,20.58 3.29,34.32 9.87,41.28 6.51,7.04 19.74,10.52 39.67,10.52l13.8 0c17.74,0 30.13,-2.58 37.03,-7.68 6.9,-5.1 10.97,-14 12.13,-26.71l30.58 0c-1.48,21.55 -8.45,37.1 -20.77,46.64 -12.39,9.61 -31.87,14.39 -58.57,14.39l-13.81 0zm126.83 -176.5l0 -25.16 24.39 0 0 -44.77 29.48 0 0 44.77 97.54 0 0 25.16 -97.54 0 0 109.61c0,15.61 2.58,26.25 7.67,31.87 5.1,5.55 14.84,8.39 29.16,8.39 14.26,0 23.87,-2.71 28.83,-8.13 4.97,-5.42 7.48,-16.13 7.48,-32.12l0 -5.87 29.87 0 0 1.68c0,28 -4.65,46.83 -13.93,56.51 -9.23,9.74 -28.52,14.58 -57.74,14.58 -22.77,0 -38.64,-5.16 -47.55,-15.42 -8.83,-10.26 -13.29,-28.83 -13.29,-55.67l0 -105.41 -24.39 0zm337.13 82.19l31.42 0 0 5.29c0,16.77 1.22,29.1 3.74,37.03 2.51,7.94 6.71,13.55 12.51,16.84 4.52,2.51 11.48,4.32 20.97,5.42 9.42,1.03 28.9,1.55 58.38,1.55 16,0 28.39,-1.03 37.22,-3.1 8.84,-2.06 15.35,-5.42 19.67,-10.13 2.39,-2.52 4.13,-6.78 5.29,-12.84 1.1,-6.07 1.68,-14.26 1.68,-24.58 0,-20.9 -2.13,-33.99 -6.32,-39.42 -4.19,-5.35 -12.58,-8.51 -25.03,-9.48l-86.77 -6.84c-25.93,-2 -43.93,-8.52 -53.87,-19.48 -9.93,-10.97 -14.9,-29.42 -14.9,-55.35 0,-16.39 1.61,-29.55 4.9,-39.48 3.29,-10 8.58,-18.26 15.87,-24.77 5.68,-5.03 13.61,-8.58 23.81,-10.71 10.19,-2.06 28.25,-3.09 54.06,-3.09l10 0c28.9,0 49.22,1.35 60.97,4.13 11.81,2.78 21.67,7.61 29.61,14.39 5.42,4.52 9.42,10.97 12,19.35 2.58,8.39 3.87,18.84 3.87,31.29 0,3.67 -0.06,6.45 -0.13,8.45 -0.07,1.93 -0.13,3.68 -0.26,5.16l-31.35 0 0 -6.97c0,-10.32 -0.65,-18.26 -1.81,-23.74 -1.23,-5.49 -3.16,-9.55 -5.81,-12.19 -3.87,-3.87 -10.84,-6.64 -20.83,-8.19 -10.07,-1.61 -29.03,-2.39 -57.03,-2.39 -28.97,0 -47.15,3.29 -54.57,9.81 -7.48,6.58 -11.16,19.67 -11.16,39.35 0,16.13 2.39,27.23 7.29,33.35 4.84,6.13 14.19,9.74 28.06,10.84l88.45 7.42c23.16,2 39.41,8.39 48.77,19.16 9.29,10.77 13.93,28.77 13.93,53.93 0,18.45 -1.16,32.25 -3.55,41.48 -2.39,9.29 -6.39,17.03 -11.93,23.16 -6.78,7.67 -15.94,13.09 -27.48,16.19 -11.55,3.09 -32.51,4.64 -63.03,4.64l-14 0c-25.93,0 -44.32,-1.35 -55.09,-4 -10.77,-2.65 -19.74,-7.23 -26.9,-13.8 -7.1,-6.07 -12.26,-14.26 -15.61,-24.58 -3.36,-10.32 -5.03,-23.42 -5.03,-39.29l0 -13.81zm280.3 -156.5l0 -33.22 29.29 0 0 33.22 -29.29 0zm0 248.17l0 -199.01 29.29 0 0 199.01 -29.29 0zm82.38 0l0 -32.13 123.02 -139.66 -117.21 0 0 -27.22 153.28 0 0 27.61 -127.35 144.76 127.35 0 0 26.64 -159.08 0zm230.37 -118.89l112.63 0 0 -7.74c0,-18.64 -3.29,-31.29 -10,-37.99 -6.65,-6.65 -19.93,-10 -39.67,-10l-13.8 0c-19.67,0 -32.77,3.36 -39.29,10 -6.58,6.71 -9.87,19.35 -9.87,37.99l0 7.74zm49.54 121.54c-29.74,0 -50.51,-5.81 -62.38,-17.42 -11.87,-11.55 -17.74,-31.93 -17.74,-61.03l0 -47.22c0,-29.22 5.87,-49.67 17.68,-61.22 11.74,-11.61 32.45,-17.42 62.06,-17.42l13.8 0c29.74,0 50.52,5.8 62.38,17.42 11.81,11.55 17.74,32 17.74,61.22l0 30.06 -143.08 0.19c-0.13,2 -0.19,4.19 -0.26,6.71 -0.06,2.46 -0.13,5.87 -0.13,10.26 0,20.58 3.29,34.32 9.87,41.28 6.51,7.04 19.74,10.52 39.67,10.52l13.8 0c17.74,0 30.13,-2.58 37.03,-7.68 6.9,-5.1 10.97,-14 12.13,-26.71l30.58 0c-1.48,21.55 -8.45,37.1 -20.77,46.64 -12.39,9.61 -31.87,14.39 -58.57,14.39l-13.81 0z"/>
  <path class="fil4" d="M559.73 765.51l121.86 0 -56.13 -151.73 -10 0 -55.73 151.73zm-68.83 99.8l103.99 -281.39 51.22 0 104.51 281.39 -32.13 0 -26.84 -71.99 -142.31 0 -26.32 71.99 -32.13 0zm294.1 0l0 -199.01 28.13 0 0 27.22c4.77,-10.19 12.45,-17.74 23.09,-22.58 10.58,-4.84 24.51,-7.29 41.93,-7.29 26.06,0 44.32,5.29 54.83,15.81 10.45,10.51 15.68,28.97 15.68,55.48l0 130.38 -29.48 0 0 -124.18c0,-20.77 -3.09,-34.45 -9.16,-41.02 -6.13,-6.52 -18,-9.81 -35.67,-9.81 -20.77,0 -36,4.77 -45.61,14.26 -9.68,9.55 -14.45,24.58 -14.45,45.09l0 115.67 -29.29 0zm353 -50.64l0 -20.97c0,-9.48 -4.77,-16.39 -14.45,-20.83 -9.61,-4.39 -24.97,-6.58 -46,-6.58 -19.29,0 -32.19,2.39 -38.64,7.29 -6.51,4.84 -9.74,14.13 -9.74,27.87 0,15.61 3.42,26.06 10.26,31.29 6.9,5.22 20.64,7.81 41.35,7.81 18.51,0 32.64,-2.19 42.51,-6.71 9.8,-4.45 14.7,-10.84 14.7,-19.16zm1.55 29.68c-4.58,8.32 -11.74,14.32 -21.68,18.06 -9.87,3.68 -23.54,5.55 -41.09,5.55 -31.09,0 -51.99,-4.45 -62.57,-13.35 -10.58,-8.84 -15.87,-25.42 -15.87,-49.61 0,-13.93 1.23,-24.9 3.68,-32.83 2.45,-7.94 6.51,-14.32 12.19,-19.09 4.84,-4.06 11.81,-6.9 21.1,-8.64 9.29,-1.68 22.58,-2.52 40,-2.52 18,0 31.74,1.49 41.29,4.45 9.48,2.97 16.64,7.87 21.41,14.84l0 -34.38c0,-16.26 -3.16,-26.84 -9.42,-31.61 -6.32,-4.77 -22.13,-7.16 -47.48,-7.16 -18.38,0 -30.57,1.93 -36.64,5.74 -6.07,3.87 -9.22,11.09 -9.42,21.68l-29.35 0 0 -4.58c0,-16.97 5.55,-29.1 16.58,-36.39 11.03,-7.23 30,-10.84 56.96,-10.84 21.03,0 37.03,0.9 48,2.65 10.97,1.74 19.09,4.58 24.39,8.51 5.81,4.52 9.87,10.13 12.32,16.84 2.39,6.65 3.55,18.13 3.55,34.38l0 139.28 -26.84 0 -1.1 -20.97zm87.15 20.97l0 -281.39 29.29 0 0 281.39 -29.29 0zm68.77 -199.01l29.48 0 59.15 171.21 58.77 -171.21 29.1 0 -75.03 216.43c-8.19,23.42 -16.51,39.29 -25.03,47.61 -8.52,8.32 -19.93,12.45 -34.32,12.45 -2.13,0 -4.52,-0.07 -7.09,-0.26 -2.58,-0.19 -5.35,-0.58 -8.39,-1.03l0.19 -25.93c0.84,0.13 1.93,0.26 3.29,0.32 1.29,0.07 3.16,0.07 5.55,0.07 9.1,0 16.13,-2.07 21.1,-6.13 4.97,-4.13 9.68,-12.06 14.06,-23.93l7.42 -20.58 -8.9 0 -69.35 -199.01zm202.43 199.01l0 -32.13 123.02 -139.66 -117.21 0 0 -27.22 153.28 0 0 27.61 -127.35 144.76 127.35 0 0 26.64 -159.08 0zm230.37 -118.89l112.63 0 0 -7.74c0,-18.64 -3.29,-31.29 -10,-37.99 -6.65,-6.65 -19.93,-10 -39.67,-10l-13.8 0c-19.67,0 -32.77,3.36 -39.29,10 -6.58,6.71 -9.87,19.35 -9.87,37.99l0 7.74zm49.54 121.54c-29.74,0 -50.51,-5.81 -62.38,-17.42 -11.87,-11.55 -17.74,-31.93 -17.74,-61.03l0 -47.22c0,-29.22 5.87,-49.67 17.68,-61.22 11.74,-11.61 32.45,-17.42 62.06,-17.42l13.8 0c29.74,0 50.52,5.8 62.38,17.42 11.81,11.55 17.74,32 17.74,61.22l0 30.06 -143.08 0.19c-0.13,2 -0.19,4.19 -0.26,6.71 -0.06,2.46 -0.13,5.87 -0.13,10.26 0,20.58 3.29,34.32 9.87,41.28 6.51,7.04 19.74,10.52 39.67,10.52l13.8 0c17.74,0 30.13,-2.58 37.03,-7.68 6.9,-5.1 10.97,-14 12.13,-26.71l30.58 0c-1.48,21.55 -8.45,37.1 -20.77,46.64 -12.39,9.61 -31.87,14.39 -58.57,14.39l-13.81 0zm146.31 -2.65l0 -199.01 28.51 0 0 27.22c4.19,-10.32 10.65,-17.87 19.48,-22.71 8.83,-4.77 20.51,-7.16 35.16,-7.16 21.67,0 36.9,5.22 45.6,15.67 8.77,10.45 13.16,28.97 13.16,55.61l0 1.49 -29.67 0 0 -5.87c0,-15.87 -2.51,-26.51 -7.55,-32 -5.03,-5.49 -14.58,-8.26 -28.58,-8.26 -16.32,0 -28.19,4.64 -35.48,13.87 -7.35,9.29 -10.97,24.45 -10.97,45.48l0 115.67 -29.67 0z"/>
  <g id="_32047894784">
   <g>
    <path class="fil2" d="M37.05 979.71l0 -543.04 10.58 0 0 543.04 -10.58 0zm-37.05 -79.01l84.68 0 -42.34 158.02 -42.34 -158.02z"/>
   </g>
   <g>
    <path class="fil2" d="M-0 158.02l42.34 -158.02 42.34 158.02 -84.68 0zm37.05 555.4l0 -634.41 10.58 0 0 634.41 -10.58 0z"/>
   </g>
  </g>
  <g id="_32047896896">
   <g>
    <path class="fil2" d="M295.77 1234.75l1507.83 0 0 10.58 -1507.83 0 0 -10.58zm79.01 -37.05l0 84.68 -158.02 -42.34 158.02 -42.34z"/>
   </g>
   <g>
    <path class="fil2" d="M2759.53 1197.7l158.02 42.34 -158.02 42.34 0 -84.68zm-1661.91 37.05l1740.92 0 0 10.58 -1740.92 0 0 -10.58z"/>
   </g>
  </g>
  <path class="fil3" d="M525.59 185.67l0 -29.87 210.69 0 0 29.87 -89.93 0 0 251.53 -31.23 0 0 -251.53 -89.54 0zm326.35 200.88l0 -20.97c0,-9.48 -4.77,-16.39 -14.45,-20.83 -9.61,-4.39 -24.97,-6.58 -46,-6.58 -19.29,0 -32.19,2.39 -38.64,7.29 -6.51,4.84 -9.74,14.13 -9.74,27.87 0,15.61 3.42,26.06 10.26,31.29 6.9,5.22 20.64,7.81 41.35,7.81 18.51,0 32.64,-2.19 42.51,-6.71 9.8,-4.45 14.7,-10.84 14.7,-19.16zm1.55 29.68c-4.58,8.32 -11.74,14.32 -21.68,18.06 -9.87,3.68 -23.54,5.55 -41.09,5.55 -31.09,0 -51.99,-4.45 -62.57,-13.35 -10.58,-8.84 -15.87,-25.42 -15.87,-49.61 0,-13.93 1.23,-24.9 3.68,-32.83 2.45,-7.94 6.51,-14.32 12.19,-19.09 4.84,-4.06 11.81,-6.9 21.1,-8.64 9.29,-1.68 22.58,-2.52 40,-2.52 18,0 31.74,1.49 41.29,4.45 9.48,2.97 16.64,7.87 21.41,14.84l0 -34.38c0,-16.26 -3.16,-26.84 -9.42,-31.61 -6.32,-4.77 -22.13,-7.16 -47.48,-7.16 -18.38,0 -30.57,1.93 -36.64,5.74 -6.07,3.87 -9.22,11.09 -9.42,21.68l-29.35 0 0 -4.58c0,-16.97 5.55,-29.1 16.58,-36.39 11.03,-7.23 30,-10.84 56.96,-10.84 21.03,0 37.03,0.9 48,2.65 10.97,1.74 19.09,4.58 24.39,8.51 5.81,4.52 9.87,10.13 12.32,16.84 2.39,6.65 3.55,18.13 3.55,34.38l0 139.28 -26.84 0 -1.1 -20.97zm86.77 20.97l0 -199.01 28.51 0 0 27.22c4.19,-10.32 10.65,-17.87 19.48,-22.71 8.83,-4.77 20.51,-7.16 35.16,-7.16 21.67,0 36.9,5.22 45.6,15.67 8.77,10.45 13.16,28.97 13.16,55.61l0 1.49 -29.67 0 0 -5.87c0,-15.87 -2.51,-26.51 -7.55,-32 -5.03,-5.49 -14.58,-8.26 -28.58,-8.26 -16.32,0 -28.19,4.64 -35.48,13.87 -7.35,9.29 -10.97,24.45 -10.97,45.48l0 115.67 -29.67 0zm318.49 -83.15l0 -32.51c0,-20.77 -4.84,-35.87 -14.45,-45.29 -9.68,-9.35 -25.16,-14.06 -46.45,-14.06 -19.29,0 -32.13,3.48 -38.64,10.51 -6.45,6.97 -9.74,23.03 -9.74,48.06l0 34.06c0,24.9 3.29,40.9 9.74,47.87 6.51,7.04 19.35,10.52 38.64,10.52 21.29,0 36.77,-4.71 46.45,-14.07 9.61,-9.42 14.45,-24.45 14.45,-45.09zm29.29 -115.86l0 196.76c0,29.22 -5.74,49.61 -17.22,61.15 -11.48,11.48 -31.61,17.29 -60.45,17.29l-13.61 0c-26,0 -44.97,-4.77 -56.9,-14.19 -12,-9.48 -18.77,-25.1 -20.45,-46.9l30.06 0c1.29,12.77 5.22,21.61 11.8,26.58 6.65,4.97 18.58,7.48 35.87,7.48l13.22 0c17.35,0 29.8,-2.84 37.22,-8.52 7.42,-5.68 11.16,-14.96 11.16,-27.8l0 -41.16c-5.55,10.9 -13.16,18.84 -22.77,23.68 -9.68,4.84 -22.71,7.29 -39.22,7.29 -28.39,0 -48.32,-5.87 -59.93,-17.55 -11.61,-11.74 -17.41,-32.06 -17.41,-60.89l0 -47.22c0,-28.97 5.8,-49.35 17.41,-61.09 11.61,-11.67 31.55,-17.55 59.93,-17.55 16.97,0 30.58,2.71 40.7,8.13 10.13,5.42 17.61,13.93 22.39,25.55l0 -31.03 28.19 0zm83.67 80.12l112.63 0 0 -7.74c0,-18.64 -3.29,-31.29 -10,-37.99 -6.65,-6.65 -19.93,-10 -39.67,-10l-13.8 0c-19.67,0 -32.77,3.36 -39.29,10 -6.58,6.71 -9.87,19.35 -9.87,37.99l0 7.74zm49.54 121.54c-29.74,0 -50.51,-5.81 -62.38,-17.42 -11.87,-11.55 -17.74,-31.93 -17.74,-61.03l0 -47.22c0,-29.22 5.87,-49.67 17.68,-61.22 11.74,-11.61 32.45,-17.42 62.06,-17.42l13.8 0c29.74,0 50.52,5.8 62.38,17.42 11.81,11.55 17.74,32 17.74,61.22l0 30.06 -143.08 0.19c-0.13,2 -0.19,4.19 -0.26,6.71 -0.06,2.46 -0.13,5.87 -0.13,10.26 0,20.58 3.29,34.32 9.87,41.28 6.51,7.04 19.74,10.52 39.67,10.52l13.8 0c17.74,0 30.13,-2.58 37.03,-7.68 6.9,-5.1 10.97,-14 12.13,-26.71l30.58 0c-1.48,21.55 -8.45,37.1 -20.77,46.64 -12.39,9.61 -31.87,14.39 -58.57,14.39l-13.81 0zm126.83 -176.5l0 -25.16 24.39 0 0 -44.77 29.48 0 0 44.77 97.54 0 0 25.16 -97.54 0 0 109.61c0,15.61 2.58,26.25 7.67,31.87 5.1,5.55 14.84,8.39 29.16,8.39 14.26,0 23.87,-2.71 28.83,-8.13 4.97,-5.42 7.48,-16.13 7.48,-32.12l0 -5.87 29.87 0 0 1.68c0,28 -4.65,46.83 -13.93,56.51 -9.23,9.74 -28.52,14.58 -57.74,14.58 -22.77,0 -38.64,-5.16 -47.55,-15.42 -8.83,-10.26 -13.29,-28.83 -13.29,-55.67l0 -105.41 -24.39 0zm337.13 82.19l31.42 0 0 5.29c0,16.77 1.22,29.1 3.74,37.03 2.51,7.94 6.71,13.55 12.51,16.84 4.52,2.51 11.48,4.32 20.97,5.42 9.42,1.03 28.9,1.55 58.38,1.55 16,0 28.39,-1.03 37.22,-3.1 8.84,-2.06 15.35,-5.42 19.67,-10.13 2.39,-2.52 4.13,-6.78 5.29,-12.84 1.1,-6.07 1.68,-14.26 1.68,-24.58 0,-20.9 -2.13,-33.99 -6.32,-39.42 -4.19,-5.35 -12.58,-8.51 -25.03,-9.48l-86.77 -6.84c-25.93,-2 -43.93,-8.52 -53.87,-19.48 -9.93,-10.97 -14.9,-29.42 -14.9,-55.35 0,-16.39 1.61,-29.55 4.9,-39.48 3.29,-10 8.58,-18.26 15.87,-24.77 5.68,-5.03 13.61,-8.58 23.81,-10.71 10.19,-2.06 28.25,-3.09 54.06,-3.09l10 0c28.9,0 49.22,1.35 60.97,4.13 11.81,2.78 21.67,7.61 29.61,14.39 5.42,4.52 9.42,10.97 12,19.35 2.58,8.39 3.87,18.84 3.87,31.29 0,3.67 -0.06,6.45 -0.13,8.45 -0.07,1.93 -0.13,3.68 -0.26,5.16l-31.35 0 0 -6.97c0,-10.32 -0.65,-18.26 -1.81,-23.74 -1.23,-5.49 -3.16,-9.55 -5.81,-12.19 -3.87,-3.87 -10.84,-6.64 -20.83,-8.19 -10.07,-1.61 -29.03,-2.39 -57.03,-2.39 -28.97,0 -47.15,3.29 -54.57,9.81 -7.48,6.58 -11.16,19.67 -11.16,39.35 0,16.13 2.39,27.23 7.29,33.35 4.84,6.13 14.19,9.74 28.06,10.84l88.45 7.42c23.16,2 39.41,8.39 48.77,19.16 9.29,10.77 13.93,28.77 13.93,53.93 0,18.45 -1.16,32.25 -3.55,41.48 -2.39,9.29 -6.39,17.03 -11.93,23.16 -6.78,7.67 -15.94,13.09 -27.48,16.19 -11.55,3.09 -32.51,4.64 -63.03,4.64l-14 0c-25.93,0 -44.32,-1.35 -55.09,-4 -10.77,-2.65 -19.74,-7.23 -26.9,-13.8 -7.1,-6.07 -12.26,-14.26 -15.61,-24.58 -3.36,-10.32 -5.03,-23.42 -5.03,-39.29l0 -13.81zm280.3 -156.5l0 -33.22 29.29 0 0 33.22 -29.29 0zm0 248.17l0 -199.01 29.29 0 0 199.01 -29.29 0zm82.38 0l0 -32.13 123.02 -139.66 -117.21 0 0 -27.22 153.28 0 0 27.61 -127.35 144.76 127.35 0 0 26.64 -159.08 0zm230.37 -118.89l112.63 0 0 -7.74c0,-18.64 -3.29,-31.29 -10,-37.99 -6.65,-6.65 -19.93,-10 -39.67,-10l-13.8 0c-19.67,0 -32.77,3.36 -39.29,10 -6.58,6.71 -9.87,19.35 -9.87,37.99l0 7.74zm49.54 121.54c-29.74,0 -50.51,-5.81 -62.38,-17.42 -11.87,-11.55 -17.74,-31.93 -17.74,-61.03l0 -47.22c0,-29.22 5.87,-49.67 17.68,-61.22 11.74,-11.61 32.45,-17.42 62.06,-17.42l13.8 0c29.74,0 50.52,5.8 62.38,17.42 11.81,11.55 17.74,32 17.74,61.22l0 30.06 -143.08 0.19c-0.13,2 -0.19,4.19 -0.26,6.71 -0.06,2.46 -0.13,5.87 -0.13,10.26 0,20.58 3.29,34.32 9.87,41.28 6.51,7.04 19.74,10.52 39.67,10.52l13.8 0c17.74,0 30.13,-2.58 37.03,-7.68 6.9,-5.1 10.97,-14 12.13,-26.71l30.58 0c-1.48,21.55 -8.45,37.1 -20.77,46.64 -12.39,9.61 -31.87,14.39 -58.57,14.39l-13.81 0z"/>
  <path class="fil4" d="M571.06 773.72l121.86 0 -56.13 -151.73 -10 0 -55.73 151.73zm-68.83 99.8l103.99 -281.39 51.22 0 104.51 281.39 -32.13 0 -26.84 -71.99 -142.31 0 -26.32 71.99 -32.13 0zm294.1 0l0 -199.01 28.13 0 0 27.22c4.77,-10.19 12.45,-17.74 23.09,-22.58 10.58,-4.84 24.51,-7.29 41.93,-7.29 26.06,0 44.32,5.29 54.83,15.81 10.45,10.51 15.68,28.97 15.68,55.48l0 130.38 -29.48 0 0 -124.18c0,-20.77 -3.09,-34.45 -9.16,-41.02 -6.13,-6.52 -18,-9.81 -35.67,-9.81 -20.77,0 -36,4.77 -45.61,14.26 -9.68,9.55 -14.45,24.58 -14.45,45.09l0 115.67 -29.29 0zm353 -50.64l0 -20.97c0,-9.48 -4.77,-16.39 -14.45,-20.83 -9.61,-4.39 -24.97,-6.58 -46,-6.58 -19.29,0 -32.19,2.39 -38.64,7.29 -6.51,4.84 -9.74,14.13 -9.74,27.87 0,15.61 3.42,26.06 10.26,31.29 6.9,5.22 20.64,7.81 41.35,7.81 18.51,0 32.64,-2.19 42.51,-6.71 9.8,-4.45 14.7,-10.84 14.7,-19.16zm1.55 29.68c-4.58,8.32 -11.74,14.32 -21.68,18.06 -9.87,3.68 -23.54,5.55 -41.09,5.55 -31.09,0 -51.99,-4.45 -62.57,-13.35 -10.58,-8.84 -15.87,-25.42 -15.87,-49.61 0,-13.93 1.23,-24.9 3.68,-32.83 2.45,-7.94 6.51,-14.32 12.19,-19.09 4.84,-4.06 11.81,-6.9 21.1,-8.64 9.29,-1.68 22.58,-2.52 40,-2.52 18,0 31.74,1.49 41.29,4.45 9.48,2.97 16.64,7.87 21.41,14.84l0 -34.38c0,-16.26 -3.16,-26.84 -9.42,-31.61 -6.32,-4.77 -22.13,-7.16 -47.48,-7.16 -18.38,0 -30.57,1.93 -36.64,5.74 -6.07,3.87 -9.22,11.09 -9.42,21.68l-29.35 0 0 -4.58c0,-16.97 5.55,-29.1 16.58,-36.39 11.03,-7.23 30,-10.84 56.96,-10.84 21.03,0 37.03,0.9 48,2.65 10.97,1.74 19.09,4.58 24.39,8.51 5.81,4.52 9.87,10.13 12.32,16.84 2.39,6.65 3.55,18.13 3.55,34.38l0 139.28 -26.84 0 -1.1 -20.97zm87.15 20.97l0 -281.39 29.29 0 0 281.39 -29.29 0zm68.77 -199.01l29.48 0 59.15 171.21 58.77 -171.21 29.1 0 -75.03 216.43c-8.19,23.42 -16.51,39.29 -25.03,47.61 -8.52,8.32 -19.93,12.45 -34.32,12.45 -2.13,0 -4.52,-0.07 -7.09,-0.26 -2.58,-0.19 -5.35,-0.58 -8.39,-1.03l0.19 -25.93c0.84,0.13 1.93,0.26 3.29,0.32 1.29,0.07 3.16,0.07 5.55,0.07 9.1,0 16.13,-2.07 21.1,-6.13 4.97,-4.13 9.68,-12.06 14.06,-23.93l7.42 -20.58 -8.9 0 -69.35 -199.01zm202.43 199.01l0 -32.13 123.02 -139.66 -117.21 0 0 -27.22 153.28 0 0 27.61 -127.35 144.76 127.35 0 0 26.64 -159.08 0zm230.37 -118.89l112.63 0 0 -7.74c0,-18.64 -3.29,-31.29 -10,-37.99 -6.65,-6.65 -19.93,-10 -39.67,-10l-13.8 0c-19.67,0 -32.77,3.36 -39.29,10 -6.58,6.71 -9.87,19.35 -9.87,37.99l0 7.74zm49.54 121.54c-29.74,0 -50.51,-5.81 -62.38,-17.42 -11.87,-11.55 -17.74,-31.93 -17.74,-61.03l0 -47.22c0,-29.22 5.87,-49.67 17.68,-61.22 11.74,-11.61 32.45,-17.42 62.06,-17.42l13.8 0c29.74,0 50.52,5.8 62.38,17.42 11.81,11.55 17.74,32 17.74,61.22l0 30.06 -143.08 0.19c-0.13,2 -0.19,4.19 -0.26,6.71 -0.06,2.46 -0.13,5.87 -0.13,10.26 0,20.58 3.29,34.32 9.87,41.28 6.51,7.04 19.74,10.52 39.67,10.52l13.8 0c17.74,0 30.13,-2.58 37.03,-7.68 6.9,-5.1 10.97,-14 12.13,-26.71l30.58 0c-1.48,21.55 -8.45,37.1 -20.77,46.64 -12.39,9.61 -31.87,14.39 -58.57,14.39l-13.81 0zm146.31 -2.65l0 -199.01 28.51 0 0 27.22c4.19,-10.32 10.65,-17.87 19.48,-22.71 8.83,-4.77 20.51,-7.16 35.16,-7.16 21.67,0 36.9,5.22 45.6,15.67 8.77,10.45 13.16,28.97 13.16,55.61l0 1.49 -29.67 0 0 -5.87c0,-15.87 -2.51,-26.51 -7.55,-32 -5.03,-5.49 -14.58,-8.26 -28.58,-8.26 -16.32,0 -28.19,4.64 -35.48,13.87 -7.35,9.29 -10.97,24.45 -10.97,45.48l0 115.67 -29.67 0z"/>
  <path class="fil5" d="M514.26 177.45l0 -29.87 210.69 0 0 29.87 -89.93 0 0 251.53 -31.23 0 0 -251.53 -89.54 0zm326.35 200.88l0 -20.97c0,-9.48 -4.77,-16.39 -14.45,-20.83 -9.61,-4.39 -24.97,-6.58 -46,-6.58 -19.29,0 -32.19,2.39 -38.64,7.29 -6.51,4.84 -9.74,14.13 -9.74,27.87 0,15.61 3.42,26.06 10.26,31.29 6.9,5.22 20.64,7.81 41.35,7.81 18.51,0 32.64,-2.19 42.51,-6.71 9.8,-4.45 14.7,-10.84 14.7,-19.16zm1.55 29.68c-4.58,8.32 -11.74,14.32 -21.68,18.06 -9.87,3.68 -23.54,5.55 -41.09,5.55 -31.09,0 -51.99,-4.45 -62.57,-13.35 -10.58,-8.84 -15.87,-25.42 -15.87,-49.61 0,-13.93 1.23,-24.9 3.68,-32.83 2.45,-7.94 6.51,-14.32 12.19,-19.09 4.84,-4.06 11.81,-6.9 21.1,-8.64 9.29,-1.68 22.58,-2.52 40,-2.52 18,0 31.74,1.49 41.29,4.45 9.48,2.97 16.64,7.87 21.41,14.84l0 -34.38c0,-16.26 -3.16,-26.84 -9.42,-31.61 -6.32,-4.77 -22.13,-7.16 -47.48,-7.16 -18.38,0 -30.57,1.93 -36.64,5.74 -6.07,3.87 -9.22,11.09 -9.42,21.68l-29.35 0 0 -4.58c0,-16.97 5.55,-29.1 16.58,-36.39 11.03,-7.23 30,-10.84 56.96,-10.84 21.03,0 37.03,0.9 48,2.65 10.97,1.74 19.09,4.58 24.39,8.51 5.81,4.52 9.87,10.13 12.32,16.84 2.39,6.65 3.55,18.13 3.55,34.38l0 139.28 -26.84 0 -1.1 -20.97zm86.77 20.97l0 -199.01 28.51 0 0 27.22c4.19,-10.32 10.65,-17.87 19.48,-22.71 8.83,-4.77 20.51,-7.16 35.16,-7.16 21.67,0 36.9,5.22 45.6,15.67 8.77,10.45 13.16,28.97 13.16,55.61l0 1.49 -29.67 0 0 -5.87c0,-15.87 -2.51,-26.51 -7.55,-32 -5.03,-5.49 -14.58,-8.26 -28.58,-8.26 -16.32,0 -28.19,4.64 -35.48,13.87 -7.35,9.29 -10.97,24.45 -10.97,45.48l0 115.67 -29.67 0zm318.49 -83.15l0 -32.51c0,-20.77 -4.84,-35.87 -14.45,-45.29 -9.68,-9.35 -25.16,-14.06 -46.45,-14.06 -19.29,0 -32.13,3.48 -38.64,10.51 -6.45,6.97 -9.74,23.03 -9.74,48.06l0 34.06c0,24.9 3.29,40.9 9.74,47.87 6.51,7.04 19.35,10.52 38.64,10.52 21.29,0 36.77,-4.71 46.45,-14.07 9.61,-9.42 14.45,-24.45 14.45,-45.09zm29.29 -115.86l0 196.76c0,29.22 -5.74,49.61 -17.22,61.15 -11.48,11.48 -31.61,17.29 -60.45,17.29l-13.61 0c-26,0 -44.97,-4.77 -56.9,-14.19 -12,-9.48 -18.77,-25.1 -20.45,-46.9l30.06 0c1.29,12.77 5.22,21.61 11.8,26.58 6.65,4.97 18.58,7.48 35.87,7.48l13.22 0c17.35,0 29.8,-2.84 37.22,-8.52 7.42,-5.68 11.16,-14.96 11.16,-27.8l0 -41.16c-5.55,10.9 -13.16,18.84 -22.77,23.68 -9.68,4.84 -22.71,7.29 -39.22,7.29 -28.39,0 -48.32,-5.87 -59.93,-17.55 -11.61,-11.74 -17.41,-32.06 -17.41,-60.89l0 -47.22c0,-28.97 5.8,-49.35 17.41,-61.09 11.61,-11.67 31.55,-17.55 59.93,-17.55 16.97,0 30.58,2.71 40.7,8.13 10.13,5.42 17.61,13.93 22.39,25.55l0 -31.03 28.19 0zm83.67 80.12l112.63 0 0 -7.74c0,-18.64 -3.29,-31.29 -10,-37.99 -6.65,-6.65 -19.93,-10 -39.67,-10l-13.8 0c-19.67,0 -32.77,3.36 -39.29,10 -6.58,6.71 -9.87,19.35 -9.87,37.99l0 7.74zm49.54 121.54c-29.74,0 -50.51,-5.81 -62.38,-17.42 -11.87,-11.55 -17.74,-31.93 -17.74,-61.03l0 -47.22c0,-29.22 5.87,-49.67 17.68,-61.22 11.74,-11.61 32.45,-17.42 62.06,-17.42l13.8 0c29.74,0 50.52,5.8 62.38,17.42 11.81,11.55 17.74,32 17.74,61.22l0 30.06 -143.08 0.19c-0.13,2 -0.19,4.19 -0.26,6.71 -0.06,2.46 -0.13,5.87 -0.13,10.26 0,20.58 3.29,34.32 9.87,41.28 6.51,7.04 19.74,10.52 39.67,10.52l13.8 0c17.74,0 30.13,-2.58 37.03,-7.68 6.9,-5.1 10.97,-14 12.13,-26.71l30.58 0c-1.48,21.55 -8.45,37.1 -20.77,46.64 -12.39,9.61 -31.87,14.39 -58.57,14.39l-13.81 0zm126.83 -176.5l0 -25.16 24.39 0 0 -44.77 29.48 0 0 44.77 97.54 0 0 25.16 -97.54 0 0 109.61c0,15.61 2.58,26.25 7.67,31.87 5.1,5.55 14.84,8.39 29.16,8.39 14.26,0 23.87,-2.71 28.83,-8.13 4.97,-5.42 7.48,-16.13 7.48,-32.12l0 -5.87 29.87 0 0 1.68c0,28 -4.65,46.83 -13.93,56.51 -9.23,9.74 -28.52,14.58 -57.74,14.58 -22.77,0 -38.64,-5.16 -47.55,-15.42 -8.83,-10.26 -13.29,-28.83 -13.29,-55.67l0 -105.41 -24.39 0zm337.13 82.19l31.42 0 0 5.29c0,16.77 1.22,29.1 3.74,37.03 2.51,7.94 6.71,13.55 12.51,16.84 4.52,2.51 11.48,4.32 20.97,5.42 9.42,1.03 28.9,1.55 58.38,1.55 16,0 28.39,-1.03 37.22,-3.1 8.84,-2.06 15.35,-5.42 19.67,-10.13 2.39,-2.52 4.13,-6.78 5.29,-12.84 1.1,-6.07 1.68,-14.26 1.68,-24.58 0,-20.9 -2.13,-33.99 -6.32,-39.42 -4.19,-5.35 -12.58,-8.51 -25.03,-9.48l-86.77 -6.84c-25.93,-2 -43.93,-8.52 -53.87,-19.48 -9.93,-10.97 -14.9,-29.42 -14.9,-55.35 0,-16.39 1.61,-29.55 4.9,-39.48 3.29,-10 8.58,-18.26 15.87,-24.77 5.68,-5.03 13.61,-8.58 23.81,-10.71 10.19,-2.06 28.25,-3.09 54.06,-3.09l10 0c28.9,0 49.22,1.35 60.97,4.13 11.81,2.78 21.67,7.61 29.61,14.39 5.42,4.52 9.42,10.97 12,19.35 2.58,8.39 3.87,18.84 3.87,31.29 0,3.67 -0.06,6.45 -0.13,8.45 -0.07,1.93 -0.13,3.68 -0.26,5.16l-31.35 0 0 -6.97c0,-10.32 -0.65,-18.26 -1.81,-23.74 -1.23,-5.49 -3.16,-9.55 -5.81,-12.19 -3.87,-3.87 -10.84,-6.64 -20.83,-8.19 -10.07,-1.61 -29.03,-2.39 -57.03,-2.39 -28.97,0 -47.15,3.29 -54.57,9.81 -7.48,6.58 -11.16,19.67 -11.16,39.35 0,16.13 2.39,27.23 7.29,33.35 4.84,6.13 14.19,9.74 28.06,10.84l88.45 7.42c23.16,2 39.41,8.39 48.77,19.16 9.29,10.77 13.93,28.77 13.93,53.93 0,18.45 -1.16,32.25 -3.55,41.48 -2.39,9.29 -6.39,17.03 -11.93,23.16 -6.78,7.67 -15.94,13.09 -27.48,16.19 -11.55,3.09 -32.51,4.64 -63.03,4.64l-14 0c-25.93,0 -44.32,-1.35 -55.09,-4 -10.77,-2.65 -19.74,-7.23 -26.9,-13.8 -7.1,-6.07 -12.26,-14.26 -15.61,-24.58 -3.36,-10.32 -5.03,-23.42 -5.03,-39.29l0 -13.81zm280.3 -156.5l0 -33.22 29.29 0 0 33.22 -29.29 0zm0 248.17l0 -199.01 29.29 0 0 199.01 -29.29 0zm82.38 0l0 -32.13 123.02 -139.66 -117.21 0 0 -27.22 153.28 0 0 27.61 -127.35 144.76 127.35 0 0 26.64 -159.08 0zm230.37 -118.89l112.63 0 0 -7.74c0,-18.64 -3.29,-31.29 -10,-37.99 -6.65,-6.65 -19.93,-10 -39.67,-10l-13.8 0c-19.67,0 -32.77,3.36 -39.29,10 -6.58,6.71 -9.87,19.35 -9.87,37.99l0 7.74zm49.54 121.54c-29.74,0 -50.51,-5.81 -62.38,-17.42 -11.87,-11.55 -17.74,-31.93 -17.74,-61.03l0 -47.22c0,-29.22 5.87,-49.67 17.68,-61.22 11.74,-11.61 32.45,-17.42 62.06,-17.42l13.8 0c29.74,0 50.52,5.8 62.38,17.42 11.81,11.55 17.74,32 17.74,61.22l0 30.06 -143.08 0.19c-0.13,2 -0.19,4.19 -0.26,6.71 -0.06,2.46 -0.13,5.87 -0.13,10.26 0,20.58 3.29,34.32 9.87,41.28 6.51,7.04 19.74,10.52 39.67,10.52l13.8 0c17.74,0 30.13,-2.58 37.03,-7.68 6.9,-5.1 10.97,-14 12.13,-26.71l30.58 0c-1.48,21.55 -8.45,37.1 -20.77,46.64 -12.39,9.61 -31.87,14.39 -58.57,14.39l-13.81 0z"/>
  <path class="fil5" d="M559.73 765.51l121.86 0 -56.13 -151.73 -10 0 -55.73 151.73zm-68.83 99.8l103.99 -281.39 51.22 0 104.51 281.39 -32.13 0 -26.84 -71.99 -142.31 0 -26.32 71.99 -32.13 0zm294.1 0l0 -199.01 28.13 0 0 27.22c4.77,-10.19 12.45,-17.74 23.09,-22.58 10.58,-4.84 24.51,-7.29 41.93,-7.29 26.06,0 44.32,5.29 54.83,15.81 10.45,10.51 15.68,28.97 15.68,55.48l0 130.38 -29.48 0 0 -124.18c0,-20.77 -3.09,-34.45 -9.16,-41.02 -6.13,-6.52 -18,-9.81 -35.67,-9.81 -20.77,0 -36,4.77 -45.61,14.26 -9.68,9.55 -14.45,24.58 -14.45,45.09l0 115.67 -29.29 0zm353 -50.64l0 -20.97c0,-9.48 -4.77,-16.39 -14.45,-20.83 -9.61,-4.39 -24.97,-6.58 -46,-6.58 -19.29,0 -32.19,2.39 -38.64,7.29 -6.51,4.84 -9.74,14.13 -9.74,27.87 0,15.61 3.42,26.06 10.26,31.29 6.9,5.22 20.64,7.81 41.35,7.81 18.51,0 32.64,-2.19 42.51,-6.71 9.8,-4.45 14.7,-10.84 14.7,-19.16zm1.55 29.68c-4.58,8.32 -11.74,14.32 -21.68,18.06 -9.87,3.68 -23.54,5.55 -41.09,5.55 -31.09,0 -51.99,-4.45 -62.57,-13.35 -10.58,-8.84 -15.87,-25.42 -15.87,-49.61 0,-13.93 1.23,-24.9 3.68,-32.83 2.45,-7.94 6.51,-14.32 12.19,-19.09 4.84,-4.06 11.81,-6.9 21.1,-8.64 9.29,-1.68 22.58,-2.52 40,-2.52 18,0 31.74,1.49 41.29,4.45 9.48,2.97 16.64,7.87 21.41,14.84l0 -34.38c0,-16.26 -3.16,-26.84 -9.42,-31.61 -6.32,-4.77 -22.13,-7.16 -47.48,-7.16 -18.38,0 -30.57,1.93 -36.64,5.74 -6.07,3.87 -9.22,11.09 -9.42,21.68l-29.35 0 0 -4.58c0,-16.97 5.55,-29.1 16.58,-36.39 11.03,-7.23 30,-10.84 56.96,-10.84 21.03,0 37.03,0.9 48,2.65 10.97,1.74 19.09,4.58 24.39,8.51 5.81,4.52 9.87,10.13 12.32,16.84 2.39,6.65 3.55,18.13 3.55,34.38l0 139.28 -26.84 0 -1.1 -20.97zm87.15 20.97l0 -281.39 29.29 0 0 281.39 -29.29 0zm68.77 -199.01l29.48 0 59.15 171.21 58.77 -171.21 29.1 0 -75.03 216.43c-8.19,23.42 -16.51,39.29 -25.03,47.61 -8.52,8.32 -19.93,12.45 -34.32,12.45 -2.13,0 -4.52,-0.07 -7.09,-0.26 -2.58,-0.19 -5.35,-0.58 -8.39,-1.03l0.19 -25.93c0.84,0.13 1.93,0.26 3.29,0.32 1.29,0.07 3.16,0.07 5.55,0.07 9.1,0 16.13,-2.07 21.1,-6.13 4.97,-4.13 9.68,-12.06 14.06,-23.93l7.42 -20.58 -8.9 0 -69.35 -199.01zm202.43 199.01l0 -32.13 123.02 -139.66 -117.21 0 0 -27.22 153.28 0 0 27.61 -127.35 144.76 127.35 0 0 26.64 -159.08 0zm230.37 -118.89l112.63 0 0 -7.74c0,-18.64 -3.29,-31.29 -10,-37.99 -6.65,-6.65 -19.93,-10 -39.67,-10l-13.8 0c-19.67,0 -32.77,3.36 -39.29,10 -6.58,6.71 -9.87,19.35 -9.87,37.99l0 7.74zm49.54 121.54c-29.74,0 -50.51,-5.81 -62.38,-17.42 -11.87,-11.55 -17.74,-31.93 -17.74,-61.03l0 -47.22c0,-29.22 5.87,-49.67 17.68,-61.22 11.74,-11.61 32.45,-17.42 62.06,-17.42l13.8 0c29.74,0 50.52,5.8 62.38,17.42 11.81,11.55 17.74,32 17.74,61.22l0 30.06 -143.08 0.19c-0.13,2 -0.19,4.19 -0.26,6.71 -0.06,2.46 -0.13,5.87 -0.13,10.26 0,20.58 3.29,34.32 9.87,41.28 6.51,7.04 19.74,10.52 39.67,10.52l13.8 0c17.74,0 30.13,-2.58 37.03,-7.68 6.9,-5.1 10.97,-14 12.13,-26.71l30.58 0c-1.48,21.55 -8.45,37.1 -20.77,46.64 -12.39,9.61 -31.87,14.39 -58.57,14.39l-13.81 0zm146.31 -2.65l0 -199.01 28.51 0 0 27.22c4.19,-10.32 10.65,-17.87 19.48,-22.71 8.83,-4.77 20.51,-7.16 35.16,-7.16 21.67,0 36.9,5.22 45.6,15.67 8.77,10.45 13.16,28.97 13.16,55.61l0 1.49 -29.67 0 0 -5.87c0,-15.87 -2.51,-26.51 -7.55,-32 -5.03,-5.49 -14.58,-8.26 -28.58,-8.26 -16.32,0 -28.19,4.64 -35.48,13.87 -7.35,9.29 -10.97,24.45 -10.97,45.48l0 115.67 -29.67 0z"/>
 </g>
</svg>
